<svg width="40" height="40" viewBox="0 0 40 40" fill="none" xmlns="http://www.w3.org/2000/svg">
<path d="M39.6244 21.6401C39.268 18.0546 37.6662 14.6745 35.114 12.1223C32.9329 9.94122 30.2632 8.53964 27.4542 7.91643V5.94624C28.6015 5.66082 29.4543 4.62229 29.4543 3.3879C29.4543 1.93414 28.2716 0.751465 26.8179 0.751465H21.2349C19.781 0.751465 18.5984 1.93414 18.5984 3.3879C18.5984 4.62222 19.4512 5.66074 20.5985 5.94624V7.92194C17.798 8.54779 15.1372 9.94743 12.9623 12.1224C12.4864 12.5983 12.0475 13.0976 11.6457 13.6165C11.6263 13.615 11.6069 13.6135 11.587 13.6135H6.06124C5.63305 13.6135 5.28582 13.9607 5.28582 14.3889C5.28582 14.8172 5.63305 15.1644 6.06124 15.1644H10.5907C10.0221 16.1162 9.56362 17.1158 9.21472 18.1448H0.775422C0.347233 18.1448 0 18.492 0 18.9202C0 19.3485 0.347233 19.6956 0.775422 19.6956H8.77653C8.55306 20.6766 8.4248 21.6749 8.39169 22.6761H4.9627C4.53451 22.6761 4.18728 23.0233 4.18728 23.4515C4.18728 23.8798 4.53451 24.2269 4.9627 24.2269H8.41643C8.48187 25.2306 8.64324 26.2291 8.9006 27.2074H3.8771C3.44892 27.2074 3.10169 27.5546 3.10169 27.9828C3.10169 28.4111 3.44892 28.7583 3.8771 28.7583H9.39547C10.1562 30.7705 11.345 32.6566 12.9623 34.274C15.517 36.8287 18.9007 38.4309 22.4898 38.7855C23.002 38.8361 23.5147 38.8611 24.0266 38.8611C27.0525 38.8611 30.0398 37.9854 32.5747 36.3347C32.9335 36.101 33.035 35.6206 32.8013 35.2618C32.5676 34.9029 32.0872 34.8014 31.7284 35.0351C26.1797 38.6484 18.7486 37.8671 14.059 33.1774C8.55639 27.6748 8.55639 18.7216 14.059 13.219C19.5614 7.71653 28.5147 7.71653 34.0172 13.219C38.7008 17.9025 39.4863 25.3273 35.885 30.8732C35.6517 31.2325 35.7538 31.7127 36.1129 31.9459C36.4723 32.1791 36.9524 32.077 37.1855 31.7179C39.1097 28.7545 39.9758 25.1756 39.6244 21.6401ZM20.1492 3.38798C20.1492 2.78935 20.6362 2.30239 21.2349 2.30239H26.8179C27.4165 2.30239 27.9034 2.78935 27.9034 3.38798C27.9034 3.9866 27.4165 4.47357 26.8179 4.47357H26.6788H21.3739H21.2349C20.6362 4.47357 20.1492 3.98652 20.1492 3.38798ZM22.1493 7.65535V6.02441H25.9033V7.65256C24.6568 7.5043 23.3956 7.50523 22.1493 7.65535Z" fill="#2B3445"/>
<path d="M34.566 32.9502C34.3613 32.9502 34.162 33.0332 34.0179 33.1773C33.8728 33.3215 33.7905 33.5216 33.7905 33.7255C33.7905 33.9295 33.8728 34.1295 34.0179 34.2738C34.162 34.4188 34.3614 34.501 34.566 34.501C34.77 34.501 34.9692 34.4188 35.1141 34.2738C35.2584 34.1295 35.3414 33.9295 35.3414 33.7255C35.3414 33.5216 35.2585 33.3215 35.1141 33.1773C34.9692 33.0332 34.7699 32.9502 34.566 32.9502Z" fill="#2B3445"/>
<path d="M24.0381 11.1682C17.4053 11.1682 12.0092 16.5642 12.0092 23.1971C12.0092 29.8301 17.4053 35.2262 24.0381 35.2262C30.671 35.2262 36.0672 29.8301 36.0672 23.1971C36.0672 16.5642 30.671 11.1682 24.0381 11.1682ZM24.0381 33.6753C18.2604 33.6753 13.5599 28.9748 13.5599 23.1971C13.5599 17.4195 18.2604 12.7189 24.0381 12.7189C29.8159 12.7189 34.5163 17.4195 34.5163 23.1971C34.5163 28.9748 29.8159 33.6753 24.0381 33.6753Z" fill="#2B3445"/>
<path d="M28.9432 17.1969L25.1025 21.0375C24.7813 20.8787 24.42 20.789 24.0381 20.789C23.6562 20.789 23.295 20.8787 22.9738 21.0375L21.2549 19.3186C20.952 19.0159 20.4612 19.0159 20.1582 19.3186C19.8555 19.6215 19.8555 20.1124 20.1582 20.4152L21.8771 22.1342C21.7182 22.4553 21.6286 22.8165 21.6286 23.1984C21.6286 24.5271 22.7095 25.608 24.0381 25.608C25.3668 25.608 26.4477 24.5271 26.4477 23.1984C26.4477 22.8165 26.3579 22.4553 26.1992 22.1342L29.9271 18.4062L30.0397 18.2935C30.3425 17.9907 30.3425 17.4998 30.0397 17.1969C29.737 16.8942 29.2461 16.8942 28.9432 17.1969ZM24.0381 24.0572C23.5647 24.0572 23.1795 23.6721 23.1795 23.1985C23.1795 22.7251 23.5647 22.3399 24.0381 22.3399C24.5117 22.3399 24.8969 22.7251 24.8969 23.1985C24.8969 23.6721 24.5117 24.0572 24.0381 24.0572Z" fill="#2B3445"/>
<path d="M32.3289 22.4311H31.6104C31.1823 22.4311 30.8351 22.7782 30.8351 23.2065C30.8351 23.6348 31.1823 23.9819 31.6104 23.9819H32.3289C32.7571 23.9819 33.1043 23.6348 33.1043 23.2065C33.1043 22.7782 32.7571 22.4311 32.3289 22.4311Z" fill="#2B3445"/>
<path d="M16.4658 22.4125H15.7475C15.3193 22.4125 14.972 22.7597 14.972 23.188C14.972 23.6163 15.3193 23.9634 15.7475 23.9634H16.4658C16.894 23.9634 17.2412 23.6163 17.2412 23.188C17.2412 22.7597 16.894 22.4125 16.4658 22.4125Z" fill="#2B3445"/>
<path d="M24.0476 16.4004C24.4758 16.4004 24.8231 16.0533 24.8231 15.625V14.9067C24.8231 14.4784 24.4758 14.1313 24.0476 14.1313C23.6195 14.1313 23.2722 14.4784 23.2722 14.9067V15.625C23.2722 16.0533 23.6195 16.4004 24.0476 16.4004Z" fill="#2B3445"/>
<path d="M24.0287 29.9944C23.6005 29.9944 23.2533 30.3415 23.2533 30.7698V31.4882C23.2533 31.9164 23.6005 32.2636 24.0287 32.2636C24.4569 32.2636 24.8042 31.9164 24.8042 31.4882V30.7698C24.8042 30.3415 24.4569 29.9944 24.0287 29.9944Z" fill="#2B3445"/>
<path d="M0.77541 27.208C0.571476 27.208 0.371421 27.291 0.227195 27.4352C0.0829688 27.5794 0 27.7794 0 27.9833C0 28.1881 0.0828912 28.3873 0.227195 28.5316C0.371499 28.6758 0.571476 28.7588 0.77541 28.7588C0.979343 28.7588 1.1794 28.6758 1.32354 28.5316C1.46777 28.3873 1.55082 28.1873 1.55082 27.9833C1.55082 27.7794 1.46785 27.5794 1.32354 27.4352C1.1794 27.291 0.979343 27.208 0.77541 27.208Z" fill="#2B3445"/>
</svg>
