<svg width="41" height="40" viewBox="0 0 41 40" fill="none" xmlns="http://www.w3.org/2000/svg">
<g clip-path="url(#clip0_91_2577)">
<path d="M39.0972 14.2476L34.765 2.98357C33.944 0.854224 31.5523 -0.206416 29.4229 0.614526C29.392 0.626472 29.3612 0.638739 29.3306 0.651409L7.68062 9.62595C5.61914 10.4716 4.60595 12.805 5.39566 14.8886L5.99095 16.4776H4.6254C2.39783 16.4801 0.59259 18.2853 0.590088 20.5128V35.04C0.59259 37.2675 2.39783 39.0728 4.6254 39.0753H32.0655C34.2931 39.0728 36.0984 37.2675 36.1008 35.04V20.5128C36.0996 20.2939 36.08 20.0752 36.0427 19.8594L36.7923 19.556C38.8722 18.7035 39.8945 16.3493 39.0972 14.2476ZM4.6254 17.7689H32.0655C33.5146 17.7731 34.7101 18.9048 34.7933 20.3515H1.89753C1.98081 18.9047 3.17624 17.773 4.6254 17.7689ZM11.1148 13.8795L15.4304 11.7211L16.3174 13.9403L12.0019 16.098L11.1148 13.8795ZM34.8095 35.0401C34.8078 36.5549 33.5803 37.7823 32.0655 37.7841H4.6254C3.11063 37.7823 1.88317 36.5549 1.88139 35.0401V26.808H34.8095V35.0401ZM34.8095 25.5167H1.88139V21.6429H34.8095V25.5167ZM36.308 18.363L35.6333 18.6361C34.9365 17.3105 33.5631 16.4797 32.0655 16.4777H14.1306L17.4267 14.8293C17.7272 14.6792 17.8626 14.3238 17.7379 14.0119L16.3685 10.5899C16.236 10.2589 15.8603 10.0979 15.5293 10.2302C15.5126 10.2369 15.4962 10.2443 15.4801 10.2523L10.0057 12.9912C9.70537 13.1414 9.57035 13.4967 9.69512 13.8085L10.763 16.4777H7.36941L6.60496 14.4387C6.06302 13.0072 6.75911 11.4043 8.17519 10.8231L29.8245 1.84852C31.2718 1.24839 32.9316 1.93513 33.5318 3.38243C33.5412 3.40494 33.5502 3.42762 33.5589 3.45038L37.8912 14.7144C38.4393 16.1586 37.7373 17.7766 36.308 18.363Z" fill="#2B3445"/>
<path d="M23.8153 35.9684C25.0184 36.6673 26.5042 36.6673 27.7073 35.9684C29.5573 37.0432 31.9283 36.4147 33.0031 34.5647C34.0778 32.7148 33.4493 30.3438 31.5993 29.269C31.0057 28.9241 30.331 28.7432 29.6443 28.7447C28.9636 28.745 28.2952 28.9259 27.7073 29.269C25.8574 28.1942 23.4864 28.8226 22.4116 30.6725C21.3368 32.5226 21.9653 34.8935 23.8153 35.9684ZM28.7869 30.1937C29.0615 30.0925 29.3515 30.0392 29.6443 30.0361C31.0706 30.0361 32.2269 31.1924 32.2269 32.6187C32.2269 34.045 31.0706 35.2013 29.6443 35.2013C29.3515 35.1982 29.0615 35.145 28.7869 35.0438C29.93 33.6291 29.93 31.6083 28.7869 30.1937ZM27.7073 30.9284C28.5683 31.8909 28.5683 33.3465 27.7073 34.309C26.8464 33.3465 26.8464 31.8908 27.7073 30.9284ZM25.7704 30.0361C26.0631 30.0391 26.3532 30.0925 26.6278 30.1937C25.4846 31.6083 25.4846 33.6292 26.6278 35.0438C26.3532 35.145 26.0631 35.1982 25.7704 35.2013C24.3441 35.2013 23.1878 34.045 23.1878 32.6187C23.1878 31.1923 24.3441 30.0361 25.7704 30.0361Z" fill="#2B3445"/>
<path d="M27.8251 13.6613L28.3496 14.8412L34.5092 12.1032L33.9846 10.9232L27.8251 13.6613Z" fill="#2B3445"/>
<path d="M32.6099 8.18976L23.713 12.2963L24.2539 13.4682L33.1508 9.36165L32.6099 8.18976Z" fill="#2B3445"/>
</g>
<defs>
<clipPath id="clip0_91_2577">
<rect width="40" height="40" fill="white" transform="translate(0.125)"/>
</clipPath>
</defs>
</svg>
