<svg width="47" height="47" viewBox="0 0 47 47" fill="none" xmlns="http://www.w3.org/2000/svg">
<path d="M38.0884 40.9355L36.3335 35.67C36.0326 34.7675 35.4946 33.9626 34.7759 33.3394C34.0572 32.7162 33.1842 32.2976 32.2483 32.1275L27.1821 31.2057V30.813C28.0638 30.3014 28.8309 29.6168 29.4419 28.8065H30.9725C32.2263 28.8065 33.2467 27.7861 33.2467 26.5323V17.4355C33.2467 12.0017 28.8256 7.58065 23.3918 7.58065C17.958 7.58065 13.537 12.0017 13.537 17.4355V22.7419C13.537 24.2035 14.5763 25.4262 15.9544 25.7113C16.3797 27.89 17.7412 29.7336 19.6015 30.813V31.2057L14.5346 32.1275C13.5987 32.2976 12.7258 32.7162 12.0073 33.3394C11.2887 33.9627 10.7509 34.7676 10.4501 35.67L10.1469 36.5804L7.56494 33.9984C7.2693 33.7028 7.2693 33.2214 7.56494 32.9258L10.5593 29.9322L4.93901 24.3119L1.55501 27.6959C0.552847 28.698 0.000976562 30.0307 0.000976562 31.4483C0.000976562 32.8659 0.552847 34.1978 1.55501 35.2L11.8002 45.4452C12.8024 46.4474 14.1351 47 15.5527 47C16.9702 47 18.3022 46.4474 19.2808 45.468L22.9734 42.0847L21.8219 40.9355H38.0884ZM31.7305 26.5323C31.7305 26.9507 31.3902 27.2903 30.9725 27.2903H30.3349C30.5572 26.7837 30.7229 26.2542 30.8292 25.7113C31.1536 25.6438 31.4523 25.5149 31.7305 25.3527V26.5323ZM30.9725 24.0473V21.4365C31.4235 21.6996 31.7305 22.1832 31.7305 22.7419C31.7305 23.3006 31.4235 23.7843 30.9725 24.0473ZM15.8112 24.0473C15.3601 23.7843 15.0531 23.3006 15.0531 22.7419C15.0531 22.1832 15.3601 21.6996 15.8112 21.4365V24.0473ZM15.8112 18.9516V19.8173C15.5453 19.8868 15.2903 19.9924 15.0531 20.1312V17.4355C15.0531 12.8378 18.7941 9.09677 23.3918 9.09677C27.9895 9.09677 31.7305 12.8378 31.7305 17.4355V20.1312C31.4935 19.9921 31.2384 19.8865 30.9725 19.8173V18.9516H30.2144C27.9728 18.9516 25.8654 18.0783 24.2795 16.4932L23.3918 15.6055L22.5041 16.4932C20.9182 18.0783 18.8108 18.9516 16.5692 18.9516H15.8112ZM17.3273 24.2581V20.4389C19.6038 20.2676 21.7263 19.3284 23.3918 17.7448C25.0573 19.3284 27.1799 20.2684 29.4563 20.4389V24.2581C29.4563 25.3633 29.1546 26.3973 28.6361 27.2903H23.3918V28.8065H27.3898C26.321 29.7472 24.9239 30.3226 23.3918 30.3226C20.048 30.3226 17.3273 27.6019 17.3273 24.2581ZM25.666 31.4892V31.5249L23.3918 33.7991L21.1176 31.5249V31.4892C21.8363 31.7151 22.5996 31.8387 23.3918 31.8387C24.184 31.8387 24.9474 31.7151 25.666 31.4892ZM11.8874 36.1491C12.1023 35.5044 12.4865 34.9294 12.9998 34.4841C13.5131 34.0388 14.1367 33.7396 14.8052 33.6179L20.1041 32.6551L23.3918 35.9429L26.6788 32.6559L31.9769 33.6186C32.6455 33.7402 33.2691 34.0394 33.7824 34.4847C34.2957 34.93 34.6799 35.5051 34.8947 36.1498L35.9855 39.4194H20.3057L17.3531 36.4667L14.0722 39.4345C13.7864 39.7218 13.2868 39.7218 13.0003 39.4345L11.3447 37.7789L11.8874 36.1491ZM4.93825 26.4557L8.41473 29.9322L7.59148 30.7554L4.11499 27.279L4.93825 26.4557ZM18.2309 44.3748C17.5153 45.0889 16.5632 45.4839 15.5512 45.4839C14.5391 45.4839 13.587 45.0889 12.8706 44.3733L2.6254 34.1288C1.90978 33.4132 1.51559 32.4611 1.51559 31.4491C1.51559 30.4363 1.90978 29.4842 2.6254 28.7685L3.04233 28.3516L6.51881 31.8281L6.49152 31.8554C5.60535 32.7423 5.60535 34.1849 6.49152 35.0719L11.9276 40.5079C12.3574 40.937 12.9282 41.1743 13.5362 41.1743C14.1442 41.1743 14.715 40.9378 15.1168 40.5345L15.1736 40.4837L18.666 43.9761L18.2309 44.3748ZM19.7849 42.9497L16.3001 39.4648L17.3015 38.5597L20.7803 42.0385L19.7849 42.9497ZM44.6176 0H34.0047C32.7509 0 31.7305 1.02035 31.7305 2.27419V8.33871C31.7305 9.59255 32.7509 10.6129 34.0047 10.6129H36.0295L35.2457 15.1848L42.561 10.6129H44.6176C45.8715 10.6129 46.8918 9.59255 46.8918 8.33871V2.27419C46.8918 1.02035 45.8715 0 44.6176 0ZM45.3757 8.33871C45.3757 8.7564 45.0353 9.09677 44.6176 9.09677H42.1259L37.3114 12.1055L37.8276 9.09677H34.0047C33.587 9.09677 33.2467 8.7564 33.2467 8.33871V2.27419C33.2467 1.8565 33.587 1.51613 34.0047 1.51613H44.6176C45.0353 1.51613 45.3757 1.8565 45.3757 2.27419V8.33871Z" fill="#2B3445"/>
<path d="M34.7626 3.03223H43.8593V4.54836H34.7626V3.03223ZM34.7626 6.06449H40.8271V7.58062H34.7626V6.06449ZM42.3432 6.06449H43.8593V7.58062H42.3432V6.06449ZM23.3916 2.27417C13.4867 2.27417 4.95471 9.12556 2.73661 18.6825L1.30008 16.2878L0 17.0678L2.6646 21.5078L7.10458 18.8432L6.32453 17.5431L4.27018 18.7757C6.41853 10.033 14.2804 3.7903 23.3916 3.7903C25.383 3.7903 27.3479 4.08594 29.2317 4.66965L29.6805 3.22175C27.6512 2.59256 25.5354 2.27417 23.3916 2.27417ZM46.5232 16.785L42.0832 14.1204L39.4194 18.5612L40.7194 19.3412L42.0461 17.13C42.7442 19.1729 43.1013 21.3099 43.1013 23.5C43.1013 28.0082 41.5397 32.4156 38.7053 35.9095L39.8825 36.8647C42.936 33.1016 44.6174 28.3546 44.6174 23.5C44.6174 21.1811 44.2437 18.9167 43.5152 16.7487L45.7431 18.0851L46.5232 16.785Z" fill="#2B3445"/>
</svg>
